<?xml version="1.0" encoding="UTF-8" standalone="no"?><!DOCTYPE svg PUBLIC "-//W3C//DTD SVG 1.1//EN" "http://www.w3.org/Graphics/SVG/1.1/DTD/svg11.dtd"><svg width="100%" height="100%" viewBox="0 0 751 751" version="1.1" xmlns="http://www.w3.org/2000/svg" xmlns:xlink="http://www.w3.org/1999/xlink" xml:space="preserve" xmlns:serif="http://www.serif.com/" style="fill-rule:evenodd;clip-rule:evenodd;stroke-linejoin:round;stroke-miterlimit:2;"><path id="path24" d="M640.312,-0l-529.625,-0c-42.928,-0 -58.77,15.842 -58.77,58.79l-0,518.235c-0,4.86 0.196,9.375 0.625,13.557c0.977,9.375 1.161,18.459 9.88,28.802c0.852,1.013 9.753,7.637 9.753,7.637c4.788,2.348 8.058,4.077 13.458,6.251l260.794,109.264c13.539,6.206 19.2,8.625 29.033,8.43l0,0.002l0.078,-0l-0,-0.002c9.833,0.195 15.494,-2.224 29.034,-8.43l260.794,-109.264c5.401,-2.174 8.669,-3.903 13.458,-6.251c0,-0 8.902,-6.624 9.752,-7.637c8.719,-10.343 8.903,-19.427 9.88,-28.802c0.43,-4.182 0.627,-8.697 0.627,-13.557l0,-518.235c0,-42.948 -15.844,-58.79 -58.771,-58.79Zm-389.591,648.083l250.739,0l-127.981,42.206l-122.758,-42.206Zm354.237,-128.381c-0.403,15.293 -13.542,26.649 -31.896,26.649l-4.998,0c-13.405,0 -27.189,-5.279 -37.367,-14.217l12.973,-15.54c5.408,3.97 12.341,8.102 19.043,9.444c3.861,0.773 7.145,1.052 9.991,0.954c12.121,-0.414 12.039,-11.027 -0.351,-14.104c-4.151,-1.03 -8.478,-2.131 -13.093,-3.348c-16.937,-4.463 -24.639,-12.329 -24.639,-24.018l0,-2.751c0,-14.844 13.986,-26.297 30.468,-26.297l5.119,-0c10.474,-0 23.427,4.161 32.246,11.474l-11.538,16.496c-8.688,-5.929 -15.784,-8.213 -22.732,-8.606c-12.147,-0.687 -12.714,9.492 -6.308,11.834c6.695,2.449 13.456,3.867 19.281,5.499c14.704,3.961 23.603,11.288 23.801,23.661l0,2.87Zm-374.664,13.149c-8.723,8.173 -24.278,13.187 -34.869,13.5l-5.12,0c-25.739,-0.542 -43.625,-19.666 -44.263,-42.428l0,-3.945c0.301,-27.426 24.293,-43.287 43.912,-43.983l5.111,0c9.485,-0.127 21.496,3.658 32.255,12.432l-13.684,16.616c-17.196,-15.562 -44.086,-7.923 -43.911,16.369c0.155,21.417 21.712,31.61 38.673,20.919l0,-10.877l-17.376,-0l0,-17.446l39.272,0l0,38.843Zm292.275,12.067l-69.38,-0l0,-87.011l68.783,0l-0,19.725l-46.058,0l0,14.224l41.416,0l0,18.522l-41.416,-0l0,14.821l46.655,0l0,19.719Zm-86.953,-0l-22.966,-0l0,-51.452l-22.612,34.842l-0.472,0l-22.374,-34.602l-0,51.212l-22.614,-0l0,-87.011l24.4,0l21.06,34.245l21.186,-34.245l24.392,0l-0,87.011Zm-100.707,-0l-24.517,-0l-6.548,-16.371l-34.152,0l-6.547,16.371l-24.033,-0l36.888,-87.608l22.016,-0l36.893,87.608Zm-38.083,-34.779l-9.998,-25.399l-10.111,25.399l20.109,0Zm263.799,-240.459l-0,64.992c-0,11.519 -5.324,16.863 -16.371,16.863l-8.192,-0c-11.46,-0 -16.784,-5.344 -16.784,-16.863l-0,-181.816c-0,-11.517 5.324,-16.861 16.784,-16.861l7.369,-0c11.054,-0 16.378,5.344 16.378,16.861l-0,56.359l42.977,-0l-0,-58.827c-0,-35.783 -17.193,-53.06 -52.8,-53.06l-21.292,0c-35.608,0 -53.216,17.685 -53.216,53.475l-0,185.922c-0,35.791 17.608,53.475 53.216,53.475l21.699,0c35.616,0 53.214,-17.684 53.214,-53.475l0,-67.045l-42.982,0Zm-152.1,118.052l43.805,0l0,-287.936l-43.805,0l-0,287.936Zm-72.974,-287.936l-68.769,0l-0,287.936l43.8,0l-0,-104.482l24.969,-0c35.615,-0 53.215,-17.684 53.215,-53.467l-0,-76.512c-0,-35.789 -17.6,-53.475 -53.215,-53.475Zm-144.36,161.241l51.577,0l0,-39.896l-51.577,0l-0,-81.448l53.631,0l-0,-39.896l-97.43,0l0,287.935l98.246,-0l-0,-39.897l-54.447,-0l-0,-86.798Zm153.775,-33.315c-0,11.518 -5.316,16.869 -16.37,16.869l-18.014,0l-0,-106.128l18.014,0c11.054,0 16.37,5.345 16.37,16.861l-0,72.398Z" style="fill:#fff;"/></svg>