<?xml version="1.0" encoding="UTF-8" standalone="no"?><!DOCTYPE svg PUBLIC "-//W3C//DTD SVG 1.1//EN" "http://www.w3.org/Graphics/SVG/1.1/DTD/svg11.dtd"><svg width="100%" height="100%" viewBox="0 0 246 246" version="1.1" xmlns="http://www.w3.org/2000/svg" xmlns:xlink="http://www.w3.org/1999/xlink" xml:space="preserve" xmlns:serif="http://www.serif.com/" style="fill-rule:evenodd;clip-rule:evenodd;stroke-linejoin:round;stroke-miterlimit:2;"><path id="path76" d="M240.619,11.205c-3.227,-3.235 -7.706,-5.236 -12.637,-5.236l-210.101,0c-4.931,0 -9.41,2.001 -12.637,5.236c-3.235,3.227 -5.244,7.714 -5.244,12.641l0,198.199c0,4.931 2.009,9.419 5.244,12.646c3.227,3.231 7.706,5.24 12.637,5.24l210.101,-0c4.931,-0 9.41,-2.009 12.637,-5.24c3.235,-3.227 5.244,-7.715 5.244,-12.646l0,-198.199c0,-4.927 -2.009,-9.414 -5.244,-12.641Zm-21.772,187.136l-13.602,0l-0,-42.172l-9.558,0c-2.249,0 -4.049,1.822 -4.049,4.066l0,38.106l-13.602,0l-0,-42.172l-9.563,0c-2.252,0 -4.053,1.822 -4.053,4.066l0,38.141l-13.597,0l-0,-45.281c-0,-5.793 4.709,-10.515 10.549,-10.515l57.475,-0l0,55.761Zm-89.462,-55.763l-34.684,0c-5.84,0 -10.554,4.723 -10.554,10.515l-0,34.701c-0,5.823 4.714,10.546 10.554,10.546l34.684,-0c5.818,-0 10.541,-4.723 10.541,-10.546l-0,-34.701c-0,-5.792 -4.723,-10.515 -10.541,-10.515Zm-55.504,11.561l-28.601,0c-2.243,0 -4.044,1.822 -4.044,4.066c0,0 0.009,0 0.009,0.026l-0.009,0l0,20.408l0.009,-0l-0.009,0.017c0,2.236 1.801,4.075 4.044,4.075l28.601,-0l-0,13.615l-35.689,0l0,-0.034c-5.84,-0 -10.562,-4.723 -10.562,-10.546l-0,-34.701c-0,-5.793 4.722,-10.515 10.562,-10.515l35.689,-0l-0,13.589Zm52.447,6.094l-0,20.434c-0,2.244 -1.8,4.075 -4.036,4.075l-20.494,-0c-2.244,-0 -4.044,-1.831 -4.044,-4.075l-0,-20.408c-0,-2.243 1.8,-4.092 4.044,-4.092l20.447,0c2.235,0 4.083,1.822 4.083,4.066Zm92.557,-41.96c0,5.936 -4.8,10.711 -10.701,10.711l-45.908,-0l-0,-13.798l38.702,-0c2.287,-0 4.122,-1.862 4.122,-4.127l0,-45.608c0,-2.274 -1.835,-4.118 -4.122,-4.118l-20.795,0c-2.252,0 -4.092,1.844 -4.092,4.118l0,20.756c0,2.278 1.84,4.127 4.092,4.127l16.607,-0l0,13.798l-23.804,-0c-5.922,-0 -10.71,-4.784 -10.71,-10.702l-0,-35.197c-0,-5.915 4.788,-10.707 10.71,-10.707l35.198,0c5.901,0 10.701,4.792 10.701,10.707l0,60.04Zm-135.301,0c-0,5.936 -4.797,10.711 -10.706,10.711l-45.904,-0l0,-13.798l38.702,-0c2.279,-0 4.105,-1.862 4.105,-4.127l0,-45.608c0,-2.274 -1.826,-4.118 -4.105,-4.118l-20.799,0c-2.274,0 -4.105,1.844 -4.105,4.118l0,20.756c0,2.278 1.831,4.127 4.105,4.127l16.616,-0l0,13.798l-23.817,-0c-5.923,-0 -10.702,-4.784 -10.702,-10.702l0,-35.197c0,-5.915 4.779,-10.707 10.702,-10.707l35.202,0c5.909,0 10.706,4.792 10.706,10.707l-0,60.04Zm56.953,-70.745l-35.214,0c-5.914,0 -10.693,4.792 -10.693,10.706l-0,35.198c-0,5.914 4.779,10.701 10.693,10.701l35.214,0c5.897,0 10.698,-4.787 10.698,-10.701l-0,-35.198c-0,-5.914 -4.801,-10.706 -10.698,-10.706Zm-3.135,17.921l-0,20.755c-0,2.279 -1.787,4.131 -4.07,4.131l-20.791,0c-2.283,0 -4.109,-1.852 -4.109,-4.131l-0,-20.755c-0,-2.275 1.826,-4.114 4.109,-4.114l20.791,-0c2.283,-0 4.07,1.839 4.07,4.114Z" style="fill:#fff;"/></svg>