<?xml version="1.0" encoding="UTF-8" standalone="no"?><!DOCTYPE svg PUBLIC "-//W3C//DTD SVG 1.1//EN" "http://www.w3.org/Graphics/SVG/1.1/DTD/svg11.dtd"><svg width="100%" height="100%" viewBox="0 0 900 900" version="1.1" xmlns="http://www.w3.org/2000/svg" xmlns:xlink="http://www.w3.org/1999/xlink" xml:space="preserve" xmlns:serif="http://www.serif.com/" style="fill-rule:evenodd;clip-rule:evenodd;stroke-linejoin:round;stroke-miterlimit:2;"><g><path d="M192.64,2.981c-89.632,16.026 -161.747,82.364 -184.48,169.573c-8.2,31.492 -8.759,49.94 -7.827,294.236c0.559,224.358 0.745,229.575 4.472,246.905c20.684,93.358 87.023,159.883 181.313,181.871c12.298,2.796 27.951,3.355 128.763,3.914c104.352,0.745 115.16,0.559 117.955,-2.236c2.795,-2.796 2.982,-38.76 2.982,-446.479c-0,-302.249 -0.559,-444.616 -1.864,-447.224c-1.863,-3.355 -5.031,-3.541 -114.228,-3.355c-88.7,0.187 -115.347,0.746 -127.086,2.795Zm168.64,69.693l0,755.063l-75.841,-0.931c-69.879,-0.746 -77.333,-1.118 -91.309,-4.659c-60.002,-15.466 -104.538,-61.68 -117.023,-121.868c-4.1,-18.821 -4.1,-482.444 -0.187,-500.892c11.181,-52.362 47.518,-95.78 96.526,-115.346c24.597,-9.876 35.964,-10.994 115.719,-11.181l72.115,-0.186Z" style="fill:#fff;fill-rule:nonzero;"/><path d="M208.665,186.53c-11.74,2.236 -29.629,11.18 -39.132,19.566c-19.566,16.957 -29.256,40.995 -27.765,69.32c0.745,14.721 1.677,18.634 7.64,30.56c8.758,18.075 21.988,31.306 40.064,40.25c12.485,6.149 15.653,6.895 31.864,7.454c14.722,0.559 19.939,-0 29.815,-3.354c40.437,-13.603 64.848,-52.922 57.953,-93.172c-8.013,-47.89 -53.48,-79.941 -100.439,-70.624Z" style="fill:#fff;fill-rule:nonzero;"/><path d="M526.567,1.304c-0.745,0.559 -1.304,202.556 -1.304,448.902c-0,406.415 0.186,447.597 2.981,448.715c5.031,1.863 149.634,1.118 167.523,-0.746c75.655,-8.572 142.366,-54.598 178.703,-122.986c4.659,-8.759 10.808,-23.48 13.976,-32.611c11.739,-35.032 11.367,-25.715 11.367,-293.49c-0,-213.736 -0.373,-245.601 -2.982,-259.204c-18.448,-97.085 -92.426,-170.318 -189.697,-187.089c-13.044,-2.236 -33.169,-2.795 -98.017,-2.795c-44.722,-0 -81.991,0.559 -82.55,1.304Zm199.015,405.856c29.069,7.64 52.921,29.815 62.611,58.139c6.149,17.517 5.963,43.232 -0.186,59.258c-11.367,29.442 -33.728,50.126 -62.425,57.766c-46.586,12.112 -96.154,-16.025 -109.757,-62.239c-4.099,-14.162 -3.913,-38.014 0.746,-52.548c13.976,-45.655 62.425,-72.488 109.011,-60.376Z" style="fill:#fff;fill-rule:nonzero;"/></g></svg>