<?xml version="1.0" encoding="UTF-8" standalone="no"?><!DOCTYPE svg PUBLIC "-//W3C//DTD SVG 1.1//EN" "http://www.w3.org/Graphics/SVG/1.1/DTD/svg11.dtd"><svg width="100%" height="100%" viewBox="0 0 200 200" version="1.1" xmlns="http://www.w3.org/2000/svg" xmlns:xlink="http://www.w3.org/1999/xlink" xml:space="preserve" xmlns:serif="http://www.serif.com/" style="fill-rule:evenodd;clip-rule:evenodd;stroke-linejoin:round;stroke-miterlimit:2;"><path d="M100,0c55.192,0 100,44.808 100,100c0,55.192 -44.808,100 -100,100c-55.192,0 -100,-44.808 -100,-100c0,-55.192 44.808,-100 100,-100Zm15.2,103.191l-0,-36.084c-0,-4.238 -0.782,-8.14 -4.758,-9.244c-3.045,-0.976 -4.935,1.852 -4.935,6.086l0,90.365l-24.37,-7.734l0,-107.745c10.362,1.923 25.458,6.471 33.573,9.206c20.639,7.086 27.637,15.905 27.637,35.776c-0,19.368 -11.956,26.708 -27.147,19.374Zm50.518,39.504c1.526,0 2.956,0.591 4.034,1.682c1.077,1.074 1.672,2.508 1.672,4.031c-0,1.529 -0.595,2.957 -1.672,4.03c-1.078,1.085 -2.508,1.676 -4.034,1.676c-1.526,-0 -2.953,-0.591 -4.034,-1.676c-1.077,-1.073 -1.669,-2.501 -1.669,-4.03c0,-3.147 2.556,-5.713 5.703,-5.713Zm-4.744,5.713c-0,1.267 0.492,2.46 1.39,3.351c0.893,0.904 2.09,1.393 3.354,1.393c2.62,0 4.744,-2.127 4.744,-4.744c0,-1.271 -0.489,-2.464 -1.39,-3.358c-0.894,-0.904 -2.09,-1.39 -3.354,-1.39c-1.264,0 -2.461,0.486 -3.354,1.39c-0.898,0.894 -1.39,2.087 -1.39,3.358Zm12.506,-21.19c-2.923,3.688 -10.083,6.318 -10.083,6.318l-53.268,19.134l0,-14.111l39.201,-13.968c4.449,-1.593 5.132,-3.847 1.516,-5.029c-3.609,-1.186 -10.144,-0.846 -14.596,0.754l-26.121,9.2l0,-14.644l1.506,-0.51c-0,0 7.548,-2.671 18.161,-3.847c10.614,-1.169 23.609,0.16 33.811,4.027c11.497,3.633 12.792,8.989 9.873,12.676Zm-6.039,18.114c0.625,0.276 0.941,0.806 0.941,1.56c0,0.388 -0.081,0.714 -0.248,0.969c-0.119,0.183 -0.289,0.333 -0.479,0.462c0.149,0.088 0.282,0.194 0.381,0.316c0.135,0.177 0.214,0.459 0.224,0.843l0.03,0.812c0.011,0.218 0.024,0.384 0.058,0.486c0.034,0.15 0.099,0.245 0.18,0.275l0.085,0.041l0,0.371l-1.23,-0l-0.041,-0.072c-0.034,-0.068 -0.057,-0.146 -0.081,-0.248c-0.017,-0.092 -0.034,-0.251 -0.044,-0.496l-0.051,-1.009c-0.014,-0.35 -0.133,-0.568 -0.357,-0.684c-0.14,-0.064 -0.371,-0.095 -0.683,-0.095l-1.73,0l-0,2.604l-1.105,-0l0,-6.352l2.95,-0c0.483,-0 0.887,0.071 1.2,0.217l-0,0Zm-3.045,2.559l1.76,0c0.354,0 0.636,-0.064 0.836,-0.197c0.184,-0.132 0.272,-0.374 0.272,-0.724c0,-0.38 -0.126,-0.628 -0.391,-0.761c-0.146,-0.071 -0.35,-0.112 -0.608,-0.112l-1.869,-0l-0,1.794Zm-127.976,-10.807c-11.803,-3.323 -13.767,-10.25 -8.387,-14.239c4.972,-3.684 13.427,-6.457 13.427,-6.457l34.943,-12.425l-0,14.165l-25.145,8.999c-4.442,1.594 -5.125,3.85 -1.516,5.033c3.613,1.183 10.151,0.846 14.6,-0.751l12.061,-4.377l-0,12.672c-0.765,0.136 -1.618,0.272 -2.406,0.405c-12.065,1.971 -24.914,1.149 -37.577,-3.025Z" style="fill:#fff;"/></svg>