<?xml version="1.0" encoding="UTF-8" standalone="no"?><!DOCTYPE svg PUBLIC "-//W3C//DTD SVG 1.1//EN" "http://www.w3.org/Graphics/SVG/1.1/DTD/svg11.dtd"><svg width="100%" height="100%" viewBox="0 0 29 29" version="1.1" xmlns="http://www.w3.org/2000/svg" xmlns:xlink="http://www.w3.org/1999/xlink" xml:space="preserve" xmlns:serif="http://www.serif.com/" style="fill-rule:evenodd;clip-rule:evenodd;stroke-linejoin:round;stroke-miterlimit:2;"><path d="M16.894,9.214c-0.299,0.449 -0.459,0.976 -0.458,1.516c0.001,0.722 0.289,1.415 0.8,1.926c0.511,0.51 1.204,0.797 1.927,0.797c0.539,0 1.066,-0.16 1.515,-0.46c0.448,-0.299 0.798,-0.725 1.004,-1.224c0.206,-0.498 0.26,-1.047 0.155,-1.576c-0.106,-0.529 -0.366,-1.014 -0.747,-1.396c-0.382,-0.381 -0.868,-0.64 -1.397,-0.745c-0.529,-0.105 -1.078,-0.05 -1.576,0.156c-0.498,0.207 -0.924,0.557 -1.223,1.006m5.281,-0.501c0.399,0.597 0.611,1.299 0.611,2.017c-0.003,0.961 -0.386,1.882 -1.066,2.562c-0.681,0.68 -1.602,1.062 -2.564,1.064c-0.718,0 -1.419,-0.213 -2.016,-0.612c-0.597,-0.399 -1.062,-0.966 -1.337,-1.629c-0.274,-0.664 -0.346,-1.394 -0.206,-2.098c0.14,-0.704 0.486,-1.35 0.994,-1.858c0.508,-0.507 1.155,-0.853 1.859,-0.992c0.704,-0.14 1.434,-0.068 2.097,0.208c0.663,0.275 1.23,0.74 1.628,1.338m-13.124,13.202l-1.777,-0.735c0.258,0.538 0.667,0.988 1.176,1.297c0.51,0.309 1.098,0.463 1.694,0.443c0.595,-0.02 1.172,-0.212 1.66,-0.555c0.488,-0.342 0.865,-0.819 1.086,-1.372c0.222,-0.553 0.277,-1.159 0.16,-1.743c-0.117,-0.584 -0.402,-1.122 -0.819,-1.547c-0.418,-0.425 -0.95,-0.719 -1.532,-0.847c-0.582,-0.128 -1.189,-0.083 -1.746,0.128l1.833,0.76c0.538,0.24 0.961,0.681 1.178,1.228c0.218,0.548 0.212,1.158 -0.014,1.702c-0.226,0.544 -0.656,0.977 -1.198,1.209c-0.541,0.231 -1.152,0.241 -1.701,0.029l0,0.003Zm-4.452,-18.084c2.667,-2.462 6.162,-3.829 9.791,-3.831l0.007,0.023c2.687,-0.001 5.321,0.748 7.605,2.163c2.285,1.414 4.13,3.438 5.327,5.844c1.197,2.406 1.699,5.098 1.45,7.773c-0.25,2.676 -1.24,5.229 -2.861,7.372c-1.621,2.143 -3.808,3.791 -6.315,4.759c-2.507,0.969 -5.234,1.218 -7.874,0.721c-2.641,-0.497 -5.091,-1.721 -7.074,-3.535c-1.983,-1.813 -3.421,-4.144 -4.151,-6.73l5.535,2.29c0.202,0.992 0.766,1.874 1.581,2.475c0.815,0.6 1.824,0.877 2.831,0.777c1.008,-0.101 1.942,-0.572 2.622,-1.321c0.681,-0.75 1.059,-1.726 1.061,-2.739l0,-0.193l4.908,-3.502l0.114,-0c1.078,-0 2.131,-0.32 3.026,-0.918c0.896,-0.599 1.594,-1.45 2.007,-2.445c0.412,-0.995 0.52,-2.09 0.31,-3.147c-0.211,-1.057 -0.729,-2.027 -1.491,-2.789c-0.762,-0.762 -1.732,-1.28 -2.789,-1.491c-1.057,-0.21 -2.152,-0.102 -3.147,0.31c-0.995,0.413 -1.846,1.111 -2.445,2.007c-0.598,0.895 -0.918,1.948 -0.918,3.026l0,0.057l-3.442,4.987l-0.228,-0c-0.821,-0 -1.623,0.248 -2.299,0.713l-7.74,-3.202c0.291,-3.617 1.933,-6.993 4.599,-9.454" style="fill:#fff;"/></svg>